<?xml version="1.0" encoding="utf-8"?>
<!-- Generator: Adobe Illustrator 19.1.0, SVG Export Plug-In . SVG Version: 6.00 Build 0)  -->
<svg version="1.1" id="Layer_1" xmlns="http://www.w3.org/2000/svg" xmlns:xlink="http://www.w3.org/1999/xlink" x="0px" y="0px"
	 viewBox="256 346 100 100" style="enable-background:new 256 346 100 100;" xml:space="preserve">
<path class="st0" d="M331.6,359l-1.7,2.6c2.3,1.5,3.8,4.1,3.8,7v54.7c0,4.6-3.7,8.3-8.3,8.3h-39.3c-4.6,0-8.3-3.7-8.3-8.3v-7.6h-3.1
	v7.6c0,6.3,5.2,11.4,11.4,11.4h39.3c6.3,0,11.4-5.2,11.4-11.4v-54.7C336.9,364.6,334.8,361,331.6,359z"/>
<g>
	<path class="st1" d="M286.4,394.5H279c-1.6,0-2.7,0.4-3.5,1.1c-0.8,0.7-1.2,1.8-1.2,3.1c0,1.7,0.6,3.1,1.8,4.1
		c-1.2,0.7-1.8,1.7-1.8,3.3c0,0.9,0.2,1.7,0.5,2.3c0.3,0.7,0.8,1.2,1.4,1.7l-1,0.1c-0.2,0-0.3,0.1-0.4,0.2s-0.1,0.3-0.1,0.5v2
		c0,0.3,0,0.5,0.2,0.7s0.3,0.2,0.6,0.2h10.9c0.4,0,0.7-0.1,0.9-0.3s0.3-0.5,0.3-1v-1.7c0-0.4-0.1-0.8-0.3-0.9
		c-0.2-0.2-0.5-0.3-0.9-0.3h-6.8c-0.7,0-1.2-0.2-1.6-0.6c-0.4-0.4-0.6-0.9-0.6-1.5c0-0.5,0.1-0.9,0.4-1.1c0.3-0.2,0.7-0.4,1.3-0.4
		h7.2c0.4,0,0.7-0.1,0.9-0.3c0.2-0.2,0.3-0.5,0.3-1v-1.5c0-0.4-0.1-0.7-0.3-0.9c-0.2-0.2-0.5-0.3-0.9-0.3h-6.9
		c-0.7,0-1.2-0.2-1.6-0.6c-0.4-0.4-0.6-0.8-0.6-1.4c0-0.5,0.1-0.9,0.4-1.2s0.8-0.4,1.5-0.4h7.1c0.4,0,0.7-0.1,0.9-0.3
		c0.2-0.2,0.3-0.5,0.3-0.9v-1.7c0-0.4-0.1-0.7-0.3-0.9C287.1,394.6,286.8,394.5,286.4,394.5z"/>
	<path class="st1" d="M291.1,386.8c-0.4-0.7-0.9-1.2-1.7-1.7c-0.8-0.5-1.8-1.1-3.2-1.7l-10.6-5c-0.1-0.1-0.3-0.1-0.4-0.1
		c-0.3,0-0.5,0.2-0.5,0.5v3.1c0,0.3,0,0.4,0.1,0.6s0.2,0.2,0.5,0.3l7.2,2.9l-7.2,2.9c-0.2,0.1-0.4,0.2-0.5,0.3
		c-0.1,0.1-0.1,0.3-0.1,0.6v3.1c0,0.3,0.2,0.5,0.5,0.5c0.1,0,0.3,0,0.4-0.1l11.2-5.3c0.6,0.2,1.1,0.5,1.3,0.7
		c0.3,0.3,0.4,0.6,0.4,1.1c0,0.3,0,0.7-0.1,0.9c-0.1,0.3-0.3,0.5-0.4,0.8c-0.1,0.2-0.2,0.3-0.2,0.4c0,0.1,0.1,0.3,0.3,0.4l1.6,0.9
		c0.2,0.1,0.3,0.1,0.4,0.1c0.1,0,0.3-0.1,0.4-0.2c0.8-1,1.2-2.1,1.2-3.6C291.7,388.2,291.5,387.4,291.1,386.8z"/>
</g>
<path class="st0" d="M295.4,373.8c-1.7-1.8-2.6-4.4-2.6-7.6c0-3.3,0.9-5.8,2.6-7.6s4.3-2.7,7.6-2.7c3.3,0,5.8,0.9,7.5,2.7
	c1.7,1.8,2.6,4.4,2.6,7.6c0,3.3-0.9,5.8-2.6,7.6c-1.7,1.8-4.3,2.7-7.5,2.7C299.7,376.5,297.2,375.6,295.4,373.8z M307,371.3
	c0.9-1.2,1.3-2.9,1.3-5.1s-0.4-4-1.3-5.1s-2.2-1.7-4-1.7c-1.8,0-3.1,0.6-4,1.7c-0.9,1.2-1.3,2.9-1.3,5.1s0.4,4,1.3,5.1
	c0.9,1.2,2.3,1.7,4,1.7C304.8,373,306.1,372.4,307,371.3z"/>
<path class="st0" d="M318.4,376c-1.4-0.3-2.5-0.8-3.4-1.3c-0.3-0.2-0.4-0.4-0.4-0.6c0-0.1,0-0.3,0.1-0.4l1.2-1.9
	c0.1-0.2,0.2-0.3,0.4-0.3c0.1,0,0.3,0.1,0.4,0.2c0.7,0.4,1.5,0.7,2.5,1c0.9,0.3,1.9,0.4,2.8,0.4c1.1,0,2-0.2,2.5-0.5
	c0.5-0.3,0.8-0.9,0.8-1.7c0-0.5-0.1-1-0.4-1.3s-0.7-0.6-1.2-0.9c-0.5-0.3-1.3-0.6-2.4-1c-1.2-0.5-2.3-0.9-3.2-1.4
	c-0.9-0.5-1.6-1.1-2.1-1.9c-0.6-0.8-0.8-1.7-0.8-2.8c0-1.8,0.7-3.3,2-4.2c1.3-1,3.1-1.5,5.3-1.5c2.9,0,5.1,0.5,6.6,1.6
	c0.3,0.2,0.4,0.4,0.4,0.6c0,0.1,0,0.3-0.1,0.4l-1.2,1.9c-0.1,0.2-0.2,0.3-0.4,0.3c-0.1,0-0.3-0.1-0.4-0.2c-1.2-0.8-2.6-1.2-4.3-1.2
	c-2.1,0-3.1,0.8-3.1,2.3c0,0.5,0.1,0.9,0.4,1.2c0.2,0.3,0.6,0.6,1,0.8c0.4,0.2,1.1,0.5,2,0.9l0.8,0.3c1.4,0.6,2.5,1.1,3.4,1.6
	c0.8,0.5,1.4,1.1,1.9,1.8c0.4,0.7,0.7,1.7,0.7,2.8c0,1.7-0.6,3-1.9,4s-3.1,1.5-5.5,1.5C321.3,376.5,319.8,376.3,318.4,376z"/>
<path class="st0" d="M274.9,376.3c0.2,0,0.3,0,0.5,0.1l4,1.9v-8.7h3.8c5,0,7.5-2.2,7.5-6.7c0-4.5-2.5-6.7-7.5-6.7H276
	c-0.5,0-0.8,0.1-1,0.3s-0.3,0.5-0.3,1v18.8C274.7,376.3,274.8,376.3,274.9,376.3z M279.5,359.8h3.4c2,0,3,1,3,3.1c0,2.1-1,3.1-3,3.1
	h-3.4V359.8z"/>
</svg>
